<svg width="32" height="32" viewBox="0 0 32 32" fill="none" xmlns="http://www.w3.org/2000/svg">
<g clip-path="url(#clip0_410_156)">
<path d="M31.7074 16.7075L28.7074 19.7075C28.6146 19.8005 28.5043 19.8743 28.3829 19.9246C28.2615 19.9749 28.1314 20.0008 27.9999 20.0008C27.8685 20.0008 27.7384 19.9749 27.617 19.9246C27.4956 19.8743 27.3853 19.8005 27.2924 19.7075L24.2924 16.7075C24.1048 16.5199 23.9994 16.2654 23.9994 16C23.9994 15.7347 24.1048 15.4802 24.2924 15.2925C24.4801 15.1049 24.7346 14.9995 24.9999 14.9995C25.2653 14.9995 25.5198 15.1049 25.7074 15.2925L26.9999 16.5863V16C27.0011 13.6708 26.2629 11.4014 24.8916 9.5186C23.5203 7.63583 21.5868 6.23694 19.3696 5.52343C17.1523 4.80993 14.7658 4.81866 12.5539 5.54835C10.3419 6.27805 8.41866 7.69104 7.0612 9.58379C6.90638 9.79928 6.67229 9.94444 6.41045 9.98734C6.1486 10.0302 5.88043 9.96736 5.66495 9.81254C5.44946 9.65772 5.3043 9.42364 5.2614 9.16179C5.2185 8.89994 5.28138 8.63178 5.4362 8.41629C7.04056 6.17944 9.31355 4.5096 11.9277 3.64731C14.5419 2.78503 17.3623 2.77482 19.9827 3.61815C22.603 4.46149 24.8881 6.11483 26.5086 8.34001C28.1291 10.5652 29.0014 13.2473 28.9999 16V16.5863L30.2924 15.2925C30.4801 15.1049 30.7346 14.9995 30.9999 14.9995C31.2653 14.9995 31.5198 15.1049 31.7074 15.2925C31.8951 15.4802 32.0005 15.7347 32.0005 16C32.0005 16.2654 31.8951 16.5199 31.7074 16.7075ZM26.5599 23.5825C24.9551 25.8177 22.6825 27.486 20.0691 28.3473C17.4558 29.2086 14.6365 29.2184 12.0172 28.3755C9.39793 27.5325 7.11366 25.8801 5.49324 23.6562C3.87282 21.4323 2.99984 18.7517 2.99995 16V15.4138L1.70745 16.7075C1.51981 16.8952 1.26531 17.0006 0.999946 17.0006C0.734582 17.0006 0.480086 16.8952 0.292446 16.7075C0.104805 16.5199 -0.000610352 16.2654 -0.000610352 16C-0.000610352 15.7347 0.104805 15.4802 0.292446 15.2925L3.29245 12.2925C3.38532 12.1996 3.49561 12.1258 3.61701 12.0755C3.7384 12.0252 3.86853 11.9993 3.99995 11.9993C4.13136 11.9993 4.26149 12.0252 4.38289 12.0755C4.50428 12.1258 4.61457 12.1996 4.70745 12.2925L7.70745 15.2925C7.89509 15.4802 8.0005 15.7347 8.0005 16C8.0005 16.2654 7.89509 16.5199 7.70745 16.7075C7.5198 16.8952 7.26531 17.0006 6.99995 17.0006C6.73458 17.0006 6.48009 16.8952 6.29245 16.7075L4.99995 15.4138V16C4.99758 18.6928 5.98726 21.292 7.77995 23.3013C8.89524 21.6851 10.4635 20.4348 12.2874 19.7075C11.3077 18.9359 10.5927 17.878 10.242 16.6812C9.89134 15.4843 9.92232 14.2079 10.3307 13.0295C10.739 11.851 11.5045 10.8291 12.5205 10.1059C13.5366 9.38266 14.7528 8.99401 15.9999 8.99401C17.2471 8.99401 18.4633 9.38266 19.4794 10.1059C20.4954 10.8291 21.2609 11.851 21.6692 13.0295C22.0776 14.2079 22.1086 15.4843 21.7579 16.6812C21.4072 17.878 20.6922 18.9359 19.7124 19.7075C21.5381 20.4349 23.1074 21.6868 24.2224 23.305C24.4753 23.0211 24.7135 22.7245 24.9362 22.4163C25.091 22.2008 25.3251 22.0556 25.5869 22.0127C25.8488 21.9698 26.117 22.0327 26.3324 22.1875C26.5479 22.3424 26.6931 22.5764 26.736 22.8383C26.7789 23.1001 26.716 23.3683 26.5612 23.5838L26.5599 23.5825ZM15.9999 19C16.7911 19 17.5644 18.7654 18.2222 18.3259C18.88 17.8864 19.3927 17.2617 19.6955 16.5308C19.9982 15.7999 20.0774 14.9956 19.9231 14.2197C19.7687 13.4438 19.3878 12.731 18.8284 12.1716C18.269 11.6122 17.5562 11.2312 16.7803 11.0769C16.0044 10.9226 15.2001 11.0018 14.4692 11.3045C13.7383 11.6073 13.1136 12.12 12.6741 12.7778C12.2345 13.4356 11.9999 14.2089 11.9999 15C11.9999 16.0609 12.4214 17.0783 13.1715 17.8285C13.9217 18.5786 14.9391 19 15.9999 19ZM15.9999 27C18.4405 26.9969 20.811 26.184 22.7399 24.6888C22.0165 23.5574 21.0199 22.6263 19.842 21.9814C18.6642 21.3364 17.3429 20.9984 15.9999 20.9984C14.657 20.9984 13.3357 21.3364 12.1578 21.9814C10.98 22.6263 9.98336 23.5574 9.25995 24.6888C11.186 26.1893 13.5584 27.0029 15.9999 27Z" fill="black"/>
</g>
<defs>
<clipPath id="clip0_410_156">
<rect width="32" height="32" fill="white"/>
</clipPath>
</defs>
</svg>
